HIERARCHY
ROOT hip
{
	OFFSET 0.000000 0.000000 0.000000
	CHANNELS 6 Xposition Yposition Zposition Xrotation Zrotation Yrotation 
	JOINT abdomen
	{
		OFFSET 0.000000 3.422050 0.000000
		CHANNELS 3 Xrotation Zrotation Yrotation 
		JOINT chest
		{
			OFFSET 0.000000 8.486693 -0.684411
			CHANNELS 3 Xrotation Zrotation Yrotation 
			JOINT neck
			{
				OFFSET 0.000000 10.266162 -0.273764
				CHANNELS 3 Xrotation Zrotation Yrotation 
				JOINT head
				{
					OFFSET 0.000000 3.148285 0.000000
					CHANNELS 3 Xrotation Zrotation Yrotation 
					End Site
					{
						OFFSET 0.000000 3.148289 0.000000
					}
				}
			}
			JOINT lCollar
			{
				OFFSET 3.422053 6.707223 -0.821293
				CHANNELS 3 Yrotation Zrotation Xrotation 
				JOINT lShldr
				{
					OFFSET 3.285171 0.000000 0.000000
					CHANNELS 3 Zrotation Yrotation Xrotation 
					JOINT lForeArm
					{
						OFFSET 10.129278 0.000000 0.000000
						CHANNELS 3 Yrotation Zrotation Xrotation 
						JOINT lHand
						{
							OFFSET 8.486692 0.000000 0.000000
							CHANNELS 3 Zrotation Yrotation Xrotation 
							End Site
							{
								OFFSET 4.106464 0.000000 0.000000
							}
						}
					}
				}
			}
			JOINT rCollar
			{
				OFFSET -3.558935 6.707223 -0.821293
				CHANNELS 3 Yrotation Zrotation Xrotation 
				JOINT rShldr
				{
					OFFSET -3.148289 0.000000 0.000000
					CHANNELS 3 Zrotation Yrotation Xrotation 
					JOINT rForeArm
					{
						OFFSET -10.266159 0.000000 0.000000
						CHANNELS 3 Yrotation Zrotation Xrotation 
						JOINT rHand
						{
							OFFSET -8.349810 0.000000 0.000000
							CHANNELS 3 Zrotation Yrotation Xrotation 
							End Site
							{
								OFFSET -4.106464 0.000000 0.000000
							}
						}
					}
				}
			}
		}
	}
	JOINT lThigh
	{
		OFFSET 5.338403 -1.642589 1.368821
		CHANNELS 3 Xrotation Zrotation Yrotation 
		JOINT lShin
		{
			OFFSET -2.053232 -20.121670 0.000000
			CHANNELS 3 Xrotation Zrotation Yrotation 
			JOINT lFoot
			{
				OFFSET 0.000000 -19.300380 -1.231939
				CHANNELS 3 Xrotation Yrotation Zrotation 
				End Site
				{
					OFFSET 0.000000 -2.463878 4.653993
				}
			}
		}
	}
	JOINT rThigh
	{
		OFFSET -5.338403 -1.642589 1.368821
		CHANNELS 3 Xrotation Zrotation Yrotation 
		JOINT rShin
		{
			OFFSET 2.053232 -20.121670 0.000000
			CHANNELS 3 Xrotation Zrotation Yrotation 
			JOINT rFoot
			{
				OFFSET 0.000000 -19.300380 -1.231939
				CHANNELS 3 Xrotation Yrotation Zrotation 
				End Site
				{
					OFFSET 0.000000 -2.463878 4.653993
				}
			}
		}
	}
}
MOTION
Frames: 13
Frame Time: 0.033264
0.000000 5.017570 0.000000 -90.001877 0.000000 0.000000 4.813534 -0.079212 -0.080215 22.584505 -0.284918 -0.753982 8.421933 -10.284750 -0.578627 -10.721713 7.535596 6.212426 0.046085 -9.174668 3.266173 -65.388237 -25.285269 4.820182 -62.371990 -4.699949 -10.005982 -12.952486 -4.372177 21.946745 0.985620 10.773598 3.989596 65.054199 25.435566 4.733511 60.757328 2.961632 -9.961783 12.272615 4.423843 23.633093 -0.909953 -2.003515 -10.922431 10.275868 1.813960 -0.316224 14.491217 13.441174 0.155675 -0.833255 1.997065 7.796722 10.263417 -2.493130 0.371363 14.768414 -10.438462 -0.451156 
0.000000 5.017570 0.000000 -90.001877 0.000000 0.000000 5.163982 -0.079152 -0.080201 22.032879 -0.284873 -0.753921 8.470300 -10.233078 -0.580048 -10.624840 7.493133 6.188014 0.158874 -9.156219 3.432466 -65.556427 -25.291292 4.908693 -62.371990 -4.699949 -10.005982 -12.912321 -3.960158 21.922894 0.820143 10.669767 4.113336 65.243233 25.432388 4.834601 60.858059 3.048702 -9.967492 12.265767 3.976699 23.547806 -0.909953 -2.003515 -10.922431 10.275868 1.813960 -0.316224 14.491217 13.441174 0.155675 -0.833255 1.997065 7.796722 10.263417 -2.493130 0.371363 14.768414 -10.438462 -0.451156 
0.000000 5.017570 0.000000 -90.001877 0.000000 0.000000 5.514416 -0.079092 -0.080186 21.481318 -0.284826 -0.753861 8.518657 -10.181403 -0.581425 -10.527946 7.450704 6.163528 0.271600 -9.137451 3.598712 -65.724625 -25.297083 4.997221 -62.371990 -4.699949 -10.005982 -12.872354 -3.548146 21.899345 0.654955 10.565591 4.236726 65.432259 25.428905 4.935680 60.958824 3.135758 -9.973358 12.259593 3.529576 23.462627 -0.909953 -2.003515 -10.922431 10.275868 1.813960 -0.316224 14.491217 13.441174 0.155675 -0.833255 1.997065 7.796722 10.263417 -2.493130 0.371363 14.768414 -10.438462 -0.451156 
0.000000 5.017570 0.000000 -90.001877 0.000000 0.000000 5.864831 -0.079032 -0.080172 20.929823 -0.284779 -0.753800 8.567005 -10.129725 -0.582758 -10.431024 7.408310 6.138969 0.384263 -9.118354 3.764908 -65.892815 -25.302628 5.085772 -62.371990 -4.699949 -10.005982 -12.832574 -3.136150 21.876099 0.490053 10.461066 4.359767 65.621262 25.425131 5.036739 61.059589 3.222806 -9.979374 12.254086 3.082484 23.377535 -0.909953 -2.003515 -10.922432 10.275868 1.813960 -0.316224 14.491217 13.441174 0.155675 -0.833255 1.997065 7.796722 10.263417 -2.493130 0.371363 14.768414 -10.438462 -0.451156 
0.000000 5.017570 0.000000 -90.001877 0.000000 0.000000 6.215221 -0.078973 -0.080157 20.378437 -0.284732 -0.753740 8.615347 -10.078048 -0.584046 -10.334079 7.365949 6.114335 0.496861 -9.098940 3.931054 -66.061066 -25.307949 5.174347 -62.371990 -4.699949 -10.005982 -12.792981 -2.724181 21.853149 0.325441 10.356198 4.482456 65.810234 25.421041 5.137775 61.160362 3.309840 -9.985544 12.249246 2.635443 23.292536 -0.909953 -2.003515 -10.922432 10.275868 1.813960 -0.316224 14.491217 13.441174 0.155675 -0.833255 1.997065 7.796722 10.263417 -2.493130 0.371363 14.768414 -10.438462 -0.451156 
0.000000 5.017570 0.000000 -90.001877 0.000000 0.000000 6.565577 -0.078913 -0.080141 19.827177 -0.284684 -0.753681 8.663681 -10.026364 -0.585290 -10.237112 7.323626 6.089630 0.609392 -9.079201 4.097146 -66.229309 -25.313030 5.262937 -62.371990 -4.699949 -10.005982 -12.753572 -2.312251 21.830500 0.161118 10.250986 4.604792 65.999207 25.416656 5.238795 61.261177 3.396863 -9.991870 12.245072 2.188466 23.207611 -0.909953 -2.003515 -10.922431 10.275868 1.813960 -0.316224 14.491217 13.441174 0.155675 -0.833255 1.997065 7.796722 10.263416 -2.493130 0.371363 14.768414 -10.438462 -0.451156 
0.000000 5.017570 0.000000 -90.001877 0.000000 0.000000 6.915894 -0.078853 -0.080126 19.276066 -0.284635 -0.753622 8.712010 -9.974684 -0.586489 -10.140121 7.281336 6.064848 0.721855 -9.059140 4.263185 -66.397560 -25.317879 5.351546 -62.371990 -4.699949 -10.005982 -12.714339 -1.900368 21.808132 -0.002916 10.145436 4.726778 66.188164 25.411978 5.339789 61.361988 3.483874 -9.998349 12.241563 1.741566 23.122763 -0.909953 -2.003515 -10.922431 10.275868 1.813960 -0.316224 14.491217 13.441174 0.155675 -0.833255 1.997065 7.796722 10.263416 -2.493130 0.371363 14.768414 -10.438462 -0.451156 
0.000000 5.017570 0.000000 -90.001877 0.000000 0.000000 7.266164 -0.078794 -0.080109 18.725142 -0.284586 -0.753564 8.760329 -9.922998 -0.587644 -10.043107 7.239084 6.039996 0.834248 -9.038762 4.429169 -66.565819 -25.322493 5.440171 -62.371990 -4.699949 -10.005982 -12.675286 -1.488548 21.786062 -0.166659 10.039547 4.848409 66.377098 25.406996 5.440762 61.462826 3.570870 -10.004982 12.238716 1.294761 23.037977 -0.909953 -2.003515 -10.922431 10.275868 1.813960 -0.316224 14.491217 13.441174 0.155675 -0.833255 1.997065 7.796722 10.263416 -2.493130 0.371363 14.768414 -10.438462 -0.451156 
0.000000 5.017570 0.000000 -90.001877 0.000000 0.000000 7.616382 -0.078735 -0.080093 18.174412 -0.284536 -0.753506 8.808640 -9.871309 -0.588754 -9.946068 7.196864 6.015068 0.946570 -9.018059 4.595094 -66.734093 -25.326864 5.528812 -62.371990 -4.699949 -10.005982 -12.636405 -1.076797 21.764280 -0.330111 9.933322 4.969686 66.566002 25.401709 5.541705 61.563679 3.657855 -10.011768 12.236532 0.848064 22.953245 -0.909953 -2.003515 -10.922431 10.275868 1.813960 -0.316224 14.491217 13.441174 0.155675 -0.833255 1.997065 7.796722 10.263416 -2.493130 0.371363 14.768414 -10.438462 -0.451156 
0.000000 5.017570 0.000000 -90.001877 0.000000 0.000000 7.966541 -0.078675 -0.080076 17.623919 -0.284486 -0.753449 8.856942 -9.819619 -0.589820 -9.849006 7.154682 5.990067 1.058819 -8.997041 4.760962 -66.902367 -25.331005 5.617467 -62.371990 -4.699949 -10.005982 -12.597695 -0.665129 21.742786 -0.493271 9.826764 5.090608 66.754860 25.396118 5.642620 61.664539 3.744824 -10.018707 12.235009 0.401493 22.868561 -0.909953 -2.003515 -10.922431 10.275868 1.813960 -0.316224 14.491217 13.441174 0.155675 -0.833255 1.997065 7.796722 10.263417 -2.493130 0.371363 14.768414 -10.438462 -0.451156 
0.000000 5.017570 0.000000 -90.001877 0.000000 0.000000 8.316636 -0.078616 -0.080059 17.073677 -0.284435 -0.753392 8.905239 -9.767929 -0.590842 -9.751921 7.112536 5.964993 1.170993 -8.975701 4.926769 -67.070663 -25.334911 5.706138 -62.371990 -4.699949 -10.005982 -12.559151 -0.253555 21.721577 -0.656139 9.719876 5.211174 66.943726 25.390244 5.743506 61.765442 3.831779 -10.025805 12.234145 -0.044940 22.783918 -0.909953 -2.003515 -10.922432 10.275868 1.813960 -0.316224 14.491217 13.441174 0.155675 -0.833255 1.997065 7.796722 10.263417 -2.493130 0.371363 14.768414 -10.438462 -0.451156 
0.000000 5.017570 0.000000 -90.001877 0.000000 0.000000 8.666658 -0.078557 -0.080041 16.523716 -0.284383 -0.753335 8.953526 -9.716233 -0.591819 -9.654812 7.070426 5.939846 1.283091 -8.954040 5.092513 -67.238930 -25.338577 5.794813 -62.371990 -4.699949 -10.005982 -12.520767 0.157916 21.700647 -0.818715 9.612659 5.331386 67.132530 25.384052 5.844357 61.866344 3.918718 -10.033052 12.233943 -0.491220 22.699308 -0.909953 -2.003515 -10.922432 10.275868 1.813960 -0.316224 14.491217 13.441174 0.155675 -0.833255 1.997065 7.796722 10.263417 -2.493130 0.371363 14.768414 -10.438462 -0.451156 
0.000000 5.017570 0.000000 -90.001877 0.000000 0.000000 9.016602 -0.078498 -0.080023 15.974061 -0.284332 -0.753280 9.001809 -9.664540 -0.592752 -9.557681 7.028352 5.914626 1.395111 -8.932061 5.258194 -67.407242 -25.342010 5.883505 -62.371990 -4.699949 -10.005982 -12.482551 0.569272 21.680008 -0.980997 9.505116 5.451239 67.321312 25.377567 5.945177 61.967274 4.005641 -10.040454 12.234399 -0.937330 22.614727 -0.909953 -2.003515 -10.922431 10.275868 1.813960 -0.316224 14.491217 13.441174 0.155675 -0.833255 1.997065 7.796722 10.263417 -2.493130 0.371363 14.768414 -10.438462 -0.451156 
